sn_tone_lookup: 
; midi: C2, fur: C0
.dw 1023
; midi: C#2, fur: C#0
.dw 1023
; midi: D2, fur: D0
.dw 1023
; midi: D#2, fur: D#0
.dw 1023
; midi: E2, fur: E0
.dw 1023
; midi: F2, fur: F0
.dw 1023
; midi: F#2, fur: F#0
.dw 1023
; midi: G2, fur: G0
.dw 1023
; midi: G#2, fur: G#0
.dw 1023
; midi: A2, fur: A0
.dw 1017
; midi: A#2, fur: A#0
.dw 960
; midi: B2, fur: B0
.dw 906
; midi: C3, fur: C1
.dw 855
; midi: C#3, fur: C#1
.dw 807
; midi: D3, fur: D1
.dw 762
; midi: D#3, fur: D#1
.dw 719
; midi: E3, fur: E1
.dw 679
; midi: F3, fur: F1
.dw 641
; midi: F#3, fur: F#1
.dw 605
; midi: G3, fur: G1
.dw 571
; midi: G#3, fur: G#1
.dw 539
; midi: A3, fur: A1
.dw 508
; midi: A#3, fur: A#1
.dw 480
; midi: B3, fur: B1
.dw 453
; midi: C4, fur: C2
.dw 428
; midi: C#4, fur: C#2
.dw 404
; midi: D4, fur: D2
.dw 381
; midi: D#4, fur: D#2
.dw 360
; midi: E4, fur: E2
.dw 339
; midi: F4, fur: F2
.dw 320
; midi: F#4, fur: F#2
.dw 302
; midi: G4, fur: G2
.dw 285
; midi: G#4, fur: G#2
.dw 269
; midi: A4, fur: A2
.dw 254
; midi: A#4, fur: A#2
.dw 240
; midi: B4, fur: B2
.dw 226
; midi: C5, fur: C3
.dw 214
; midi: C#5, fur: C#3
.dw 202
; midi: D5, fur: D3
.dw 190
; midi: D#5, fur: D#3
.dw 180
; midi: E5, fur: E3
.dw 170
; midi: F5, fur: F3
.dw 160
; midi: F#5, fur: F#3
.dw 151
; midi: G5, fur: G3
.dw 143
; midi: G#5, fur: G#3
.dw 135
; midi: A5, fur: A3
.dw 127
; midi: A#5, fur: A#3
.dw 120
; midi: B5, fur: B3
.dw 113
; midi: C6, fur: C4
.dw 107
; midi: C#6, fur: C#4
.dw 101
; midi: D6, fur: D4
.dw 95
; midi: D#6, fur: D#4
.dw 90
; midi: E6, fur: E4
.dw 85
; midi: F6, fur: F4
.dw 80
; midi: F#6, fur: F#4
.dw 76
; midi: G6, fur: G4
.dw 71
; midi: G#6, fur: G#4
.dw 67
; midi: A6, fur: A4
.dw 64
; midi: A#6, fur: A#4
.dw 60
; midi: B6, fur: B4
.dw 57
; midi: C7, fur: C5
.dw 53
; midi: C#7, fur: C#5
.dw 50
; midi: D7, fur: D5
.dw 48
; midi: D#7, fur: D#5
.dw 45
; midi: E7, fur: E5
.dw 42
; midi: F7, fur: F5
.dw 40
; midi: F#7, fur: F#5
.dw 38
; midi: G7, fur: G5
.dw 36
; midi: G#7, fur: G#5
.dw 34
; midi: A7, fur: A5
.dw 32
; midi: A#7, fur: A#5
.dw 30
; midi: B7, fur: B5
.dw 28
; midi: C8, fur: C6
.dw 27
; midi: C#8, fur: C#6
.dw 25
; midi: D8, fur: D6
.dw 24
; midi: D#8, fur: D#6
.dw 22
; midi: E8, fur: E6
.dw 21
; midi: F8, fur: F6
.dw 20
; midi: F#8, fur: F#6
.dw 19
; midi: G8, fur: G6
.dw 18
; midi: G#8, fur: G#6
.dw 17
; midi: A8, fur: A6
.dw 16
; midi: A#8, fur: A#6
.dw 15
; midi: B8, fur: B6
.dw 14
; midi: C9, fur: C7
.dw 13
; midi: C#9, fur: C#7
.dw 13
; midi: D9, fur: D7
.dw 12
; midi: D#9, fur: D#7
.dw 11
; midi: E9, fur: E7
.dw 11
; midi: F9, fur: F7
.dw 10
; midi: F#9, fur: F#7
.dw 9
; midi: G9, fur: G7
.dw 9
